 http://silvertorrent.org/
 
http://www.shotpix.com/images/08096634903738710469.png
 
http://img32.imageshack.us/img32/931/deadfallf.jpg

Deadfall.2012.WEBHDRip.XVID.AC3.HQ.Hive-CM8


Source: 1080p WEB-DL HS - Thx

Video.: 720x304 @bitrate 1700 2pass
Audio.: AC3 5.1 @384
Sample: Yes, included


IMDb..: http://www.imdb.com/title/tt1667310/


ENCODE
The web-dl looked amazing, almost bluray quality, and came with a 5.1 track
there wasnt much to do, just brightness, sharpness, and denoise
got very nice

unless the bluray will be extended cut i dont see a point in doing a bdrip
at a later point - enjoy


General
Complete name                  : Deadfall.2012.WEBHDRip.XVID.AC3.HQ.Hive-CM8.avi
Format                         : AVI
Format/Info                    : Audio Video Interleave
File size                      : 1.38 GiB
Duration                       : 1h 34mn
Overall bit rate               : 2 093 Kbps
Writing application            : Nandub v1.0rc2
Writing library                : Nandub build 1853/release

Video
ID                             : 0
Format                         : MPEG-4 Visual
Format profile                 : Advanced Simple@L5
Format settings, BVOP          : 2
Format settings, QPel          : Yes
Format settings, GMC           : No warppoints
Format settings, Matrix        : Default (H.263)
Muxing mode                    : Packed bitstream
Codec ID                       : XVID
Codec ID/Hint                  : XviD
Duration                       : 1h 34mn
Bit rate                       : 1 699 Kbps
Width                          : 720 pixels
Height                         : 304 pixels
Display aspect ratio           : 2.35:1
Frame rate                     : 23.976 fps
Color space                    : YUV
Chroma subsampling             : 4:2:0
Bit depth                      : 8 bits
Scan type                      : Progressive
Compression mode               : Lossy
Bits/(Pixel*Frame)             : 0.324
Stream size                    : 1.12 GiB (81%)
Writing library                : XviD 1.2.1 (UTC 2008-12-04)

Audio
ID                             : 1
Format                         : AC-3
Format/Info                    : Audio Coding 3
Mode extension                 : CM (complete main)
Format settings, Endianness    : Big
Codec ID                       : 2000
Duration                       : 1h 34mn
Bit rate mode                  : Constant
Bit rate                       : 384 Kbps
Channel(s)                     : 6 channels
Channel positions              : Front: L C R, Side: L R, LFE
Sampling rate                  : 48.0 KHz
Bit depth                      : 16 bits
Compression mode               : Lossy
Stream size                    : 260 MiB (18%)
Alignment                      : Split accross interleaves
Interleave, duration           : 42 ms (1.00 video frame)
Interleave, preload duration   : 500 ms


PLOT
A thriller that follows two siblings who decide to fend for themselves
in the wake of a botched casino heist, and their unlikely reunion
during another family's Thanksgiving celebration.


CAST
Eric Bana        ...    Addison
Olivia Wilde     ...    Liza
Charlie Hunnam   ...    Jay

 
http://silvertorrent.org/index.php?page=torrent-details&id=1850ec59a2e0537c8d5728f9be3d70b0505934a8

 
http://img16.imageshack.us/img16/4148/dfddfdff.png 
http://img651.imageshack.us/img651/535/dfddff.png 
http://img819.imageshack.us/img819/884/dfdfrs.png 
http://img26.imageshack.us/img26/2722/dfddfdfdfdfdfdff.png 
http://img547.imageshack.us/img547/4531/dfddfdfdfdfdff.png 
http://img195.imageshack.us/img195/2695/dfddfdfdfdff.png 
http://img846.imageshack.us/img846/3531/dfddfdfdff.png

GREETZ
ViSiON,SPK,SceneLovers,PRESTiGE,SANTi,3LT0N,YanKeeS,COPYxRIGHT,THC,T0XiC
D2U,LKRG,ADTRG,Feel-Free,KoDeKinG,FLAWL3SS,WBZ,BHRG,26K,NOVA,MAGNET
Unevano,BigVik,Rapeseed,SAFC,goldadvance,KaN1vE,Pinnz,Wayne,TED
SeeN,jtr,Limey,ICONiK,4PlayHD,THEDEN-RG,eXceSs,AKS74u,HiGH
Mr Hive,and most P2P groups
Great Work Guys!

LOOKING FOR ANYTHING YOU WANT TO LOOK AND SOUND BETTER

CM8@hushmail.com